<?xml version="1.0" encoding="UTF-8"?>
<svg width="329px" height="18px" viewBox="0 0 329 18" version="1.1" xmlns="http://www.w3.org/2000/svg" xmlns:xlink="http://www.w3.org/1999/xlink">
    <!-- Generator: Sketch 52.6 (67491) - http://www.bohemiancoding.com/sketch -->
    <title>device-goup_record-stream</title>
    <desc>Created with Sketch.</desc>
    <g id="device-goup_record-stream" stroke="none" stroke-width="1" fill="none" fill-rule="evenodd">
        <text id="Video-recording" font-family="TeXGyreAdventor-Regular, TeX Gyre Adventor" font-size="16" font-weight="normal" line-spacing="16" letter-spacing="0.319999933" fill="#222526">
            <tspan x="20" y="18">Video-recording</tspan>
        </text>
        <g id="Group" transform="translate(0.000000, 1.000000)" fill="#00A2FF" fill-rule="nonzero">
            <g id="check-circle-1">
                <path d="M8,-4.44607314e-16 C3.581722,-7.15148814e-16 5.41083001e-16,3.581722 0,8 C-5.41083001e-16,12.418278 3.581722,16 8,16 C12.418278,16 16,12.418278 16,8 C15.9948568,3.58385413 12.4161459,0.00514317487 8,-4.44607314e-16 Z M12.618,5.46666667 L8.05466667,11.6593333 C7.94583573,11.8037264 7.78355217,11.8983367 7.60428124,11.9219052 C7.42501031,11.9454737 7.24378737,11.8960237 7.10133333,11.7846667 L3.84266667,9.17933333 C3.55511041,8.94921469 3.50854802,8.52955626 3.73866667,8.242 C3.96878531,7.95444374 4.38844374,7.90788135 4.676,8.138 L7.39333333,10.312 L11.5446667,4.678 C11.6807947,4.47372668 11.9181674,4.36078844 12.162541,4.38402501 C12.4069147,4.40726159 12.6187482,4.56291318 12.7139376,4.78918161 C12.809127,5.01545003 12.77227,5.27572379 12.618,5.46666667 Z" id="Shape"></path>
            </g>
        </g>
        <text id="Video-streaming" font-family="TeXGyreAdventor-Regular, TeX Gyre Adventor" font-size="16" font-weight="normal" line-spacing="16" letter-spacing="0.319999933" fill="#222526">
            <tspan x="197" y="18">Video-streaming</tspan>
        </text>
        <g id="Group-Copy" transform="translate(177.000000, 1.000000)" fill="#00A2FF" fill-rule="nonzero">
            <g id="check-circle-1">
                <path d="M8,-4.44607314e-16 C3.581722,-7.15148814e-16 5.41083001e-16,3.581722 0,8 C-5.41083001e-16,12.418278 3.581722,16 8,16 C12.418278,16 16,12.418278 16,8 C15.9948568,3.58385413 12.4161459,0.00514317487 8,-4.44607314e-16 Z M12.618,5.46666667 L8.05466667,11.6593333 C7.94583573,11.8037264 7.78355217,11.8983367 7.60428124,11.9219052 C7.42501031,11.9454737 7.24378737,11.8960237 7.10133333,11.7846667 L3.84266667,9.17933333 C3.55511041,8.94921469 3.50854802,8.52955626 3.73866667,8.242 C3.96878531,7.95444374 4.38844374,7.90788135 4.676,8.138 L7.39333333,10.312 L11.5446667,4.678 C11.6807947,4.47372668 11.9181674,4.36078844 12.162541,4.38402501 C12.4069147,4.40726159 12.6187482,4.56291318 12.7139376,4.78918161 C12.809127,5.01545003 12.77227,5.27572379 12.618,5.46666667 Z" id="Shape"></path>
            </g>
        </g>
    </g>
</svg>